<?xml version="1.0" encoding="UTF-8" standalone="no"?>
<svg
   xmlns:dc="http://purl.org/dc/elements/1.1/"
   xmlns:cc="http://creativecommons.org/ns#"
   xmlns:rdf="http://www.w3.org/1999/02/22-rdf-syntax-ns#"
   xmlns:svg="http://www.w3.org/2000/svg"
   xmlns="http://www.w3.org/2000/svg"
   xmlns:sodipodi="http://sodipodi.sourceforge.net/DTD/sodipodi-0.dtd"
   xmlns:inkscape="http://www.inkscape.org/namespaces/inkscape"
   viewBox="0 0 512 512"
   version="1.1"
   id="svg4"
   sodipodi:docname="asset-sprite-renderer-NM.svg"
   width="512"
   height="512"
   inkscape:version="1.0.1 (3bc2e813f5, 2020-09-07)">
  <metadata
     id="metadata10">
    <rdf:RDF>
      <cc:Work
         rdf:about="">
        <dc:format>image/svg+xml</dc:format>
        <dc:type
           rdf:resource="http://purl.org/dc/dcmitype/StillImage" />
        <dc:title></dc:title>
      </cc:Work>
    </rdf:RDF>
  </metadata>
  <defs
     id="defs8" />
  <sodipodi:namedview
     pagecolor="#ffffff"
     bordercolor="#666666"
     borderopacity="1"
     objecttolerance="10"
     gridtolerance="10"
     guidetolerance="10"
     inkscape:pageopacity="0"
     inkscape:pageshadow="2"
     inkscape:window-width="1920"
     inkscape:window-height="1017"
     id="namedview6"
     showgrid="false"
     inkscape:snap-intersection-paths="false"
     inkscape:object-paths="false"
     inkscape:snap-smooth-nodes="false"
     inkscape:snap-midpoints="true"
     inkscape:zoom="1.4453125"
     inkscape:cx="288.62984"
     inkscape:cy="256.12987"
     inkscape:window-x="-8"
     inkscape:window-y="-8"
     inkscape:window-maximized="1"
     inkscape:current-layer="svg4" />
  <!--! Font Awesome Pro 6.1.1 by @fontawesome - https://fontawesome.com License - https://fontawesome.com/license (Commercial License) Copyright 2022 Fonticons, Inc. -->
  <path
     d="m 295.73299,46.088555 c 1.68889,-10.182239 10.4889,-17.644473 20.80003,-17.644473 6.66668,0 12.88891,3.128894 16.88892,8.446236 l 15.02224,19.998254 h 46.31119 c 11.28891,0 22.22226,4.497785 30.22227,12.497798 l 15.91114,15.946688 h 49.77785 c 11.82224,0 21.33337,9.55557 21.33337,21.333372 v 21.33337 c 0,39.28895 -31.82227,71.11122 -71.11122,71.11122 h -61.6001 l -4.53334,27.11116 -99.55572,-56.88898 z m 102.48905,39.244503 c -7.82223,0 -14.22224,6.36446 -14.22224,14.22225 0,7.857792 6.40001,14.222242 14.22224,14.222242 7.82224,0 14.22225,-6.36445 14.22225,-14.222242 0,-7.85779 -6.40001,-14.22225 -14.22225,-14.22225 z M 369.77755,256.08889 v 199.02254 c 0,15.73336 -12.71113,28.44449 -28.44449,28.44449 h -28.44449 c -15.73336,0 -28.44449,-12.71113 -28.44449,-28.44449 V 352.71127 c -22.13337,10.93335 -45.51118,17.06669 -71.11122,17.06669 -25.60004,0 -49.77786,-6.13334 -71.11123,-17.06669 v 102.40016 c 0,15.73336 -12.71113,28.44449 -28.44449,28.44449 H 85.332654 c -15.706692,0 -28.44449,-12.71113 -28.44449,-28.44449 V 250.48888 C 31.31479,240.79998 11.234758,219.11105 4.2978581,191.37768 L 0.84878595,177.59988 C -2.961709,162.31096 6.3049724,146.84427 21.545886,142.31093 c 15.235579,-3.02222 30.684493,6.22223 34.497832,21.42226 l 3.448895,13.86669 c 3.164449,12.62224 14.542245,20.71114 27.591155,20.71114 H 270.04406 Z"
     id="path2"
     style="stroke-width:0.88889;fill:#6200ea;fill-opacity:1" />
  <path
     d="m 393.10644,365.35435 c 0.96596,-0.1035 1.93193,-0.138 2.89789,-0.138 18.2843,0 33.11874,14.52396 33.11874,33.11877 0,18.28431 -14.83444,33.11876 -33.11874,33.11876 -18.5948,0 -33.11876,-14.83445 -33.11876,-33.11876 0,-0.96597 0.0345,-1.93193 0.13799,-2.8979 3.20839,1.55244 6.93425,2.8979 10.90159,2.8979 12.17805,0 22.07918,-9.90114 22.07918,-22.07918 0,-3.96735 -1.34545,-7.69321 -2.89789,-10.90159 z m 69.34239,-16.49039 c 16.1454,14.97244 26.9435,32.60129 32.04931,45.22781 1.13845,2.7254 1.13845,5.76129 0,8.48669 -5.10581,12.31604 -15.90391,29.94488 -32.04931,45.22781 -16.24889,15.11043 -38.56956,27.80596 -66.4445,27.80596 -27.87496,0 -50.19562,-12.69553 -66.43762,-27.80596 -16.14539,-15.28293 -26.93659,-32.91177 -32.06966,-45.22781 -1.13207,-2.7254 -1.13207,-5.76129 0,-8.48669 5.13307,-12.62652 15.92427,-30.25537 32.06966,-45.22781 16.242,-15.09663 38.56266,-27.80596 66.43762,-27.80596 27.87494,0 50.19561,12.70933 66.4445,27.80596 z m -66.4445,-0.20699 c -27.42648,0 -49.67815,22.25167 -49.67815,49.67815 0,27.42647 22.25167,49.67814 49.67815,49.67814 27.42646,0 49.67813,-22.25167 49.67813,-49.67814 0,-27.42648 -22.25167,-49.67815 -49.67813,-49.67815 z"
     id="path2-3"
     style="fill:#4527a0;fill-opacity:1;stroke-width:0.344987" />
</svg>
