<?xml version="1.0" encoding="UTF-8" standalone="no"?>
<svg
   xmlns:dc="http://purl.org/dc/elements/1.1/"
   xmlns:cc="http://creativecommons.org/ns#"
   xmlns:rdf="http://www.w3.org/1999/02/22-rdf-syntax-ns#"
   xmlns:svg="http://www.w3.org/2000/svg"
   xmlns="http://www.w3.org/2000/svg"
   xmlns:sodipodi="http://sodipodi.sourceforge.net/DTD/sodipodi-0.dtd"
   xmlns:inkscape="http://www.inkscape.org/namespaces/inkscape"
   viewBox="0 0 512 512"
   version="1.1"
   id="svg4"
   sodipodi:docname="asset-mono-script-NM.svg"
   inkscape:version="1.0.1 (3bc2e813f5, 2020-09-07)"
   width="512"
   height="512">
  <metadata
     id="metadata10">
    <rdf:RDF>
      <cc:Work
         rdf:about="">
        <dc:format>image/svg+xml</dc:format>
        <dc:type
           rdf:resource="http://purl.org/dc/dcmitype/StillImage" />
        <dc:title></dc:title>
      </cc:Work>
    </rdf:RDF>
  </metadata>
  <defs
     id="defs8" />
  <sodipodi:namedview
     pagecolor="#ffffff"
     bordercolor="#666666"
     borderopacity="1"
     objecttolerance="10"
     gridtolerance="10"
     guidetolerance="10"
     inkscape:pageopacity="0"
     inkscape:pageshadow="2"
     inkscape:window-width="1920"
     inkscape:window-height="1017"
     id="namedview6"
     showgrid="false"
     inkscape:zoom="1.4453125"
     inkscape:cx="288"
     inkscape:cy="256"
     inkscape:window-x="-8"
     inkscape:window-y="-8"
     inkscape:window-maximized="1"
     inkscape:current-layer="svg4"
     inkscape:document-rotation="0" />
  <!--! Font Awesome Pro 6.1.1 by @fontawesome - https://fontawesome.com License - https://fontawesome.com/license (Commercial License) Copyright 2022 Fonticons, Inc. -->
  <path
     d="M 42.666667,56.88889 C 19.111111,56.88889 0,76.000001 0,99.555557 v 56.888893 c 0,7.91111 6.333333,14.22222 14.222222,14.22222 H 85.33333 V 99.555557 C 85.33333,76.000001 66.222222,56.88889 42.666667,56.88889 Z M 227.55556,366.75556 V 312.88889 H 426.66667 V 142.22222 c 0,-47.111108 -38.22223,-85.33333 -85.33334,-85.33333 H 99.2 c 9.06667,11.893333 14.57778,26.56 14.57778,42.666667 V 369.77778 c 0,34.56 30.77333,61.89333 66.44444,56.11555 28.04445,-4.56 47.33334,-30.78222 47.33334,-59.13777 z M 256,341.33333 v 28.44445 c 0,47.00444 -38.22222,85.33333 -85.33333,85.33333 h 241.77777 c 55.00445,0 99.55556,-44.56 99.55556,-99.55555 0,-7.88889 -6.33333,-14.22223 -14.22222,-14.22223 z"
     id="path2"
     style="fill:#00796b;fill-opacity:1;stroke-width:0.888889" />
</svg>
