<?xml version="1.0" encoding="UTF-8" standalone="no"?>
<svg
   xmlns:dc="http://purl.org/dc/elements/1.1/"
   xmlns:cc="http://creativecommons.org/ns#"
   xmlns:rdf="http://www.w3.org/1999/02/22-rdf-syntax-ns#"
   xmlns:svg="http://www.w3.org/2000/svg"
   xmlns="http://www.w3.org/2000/svg"
   xmlns:sodipodi="http://sodipodi.sourceforge.net/DTD/sodipodi-0.dtd"
   xmlns:inkscape="http://www.inkscape.org/namespaces/inkscape"
   viewBox="0 0 512 512"
   version="1.1"
   id="svg4"
   sodipodi:docname="asset-billboard-renderer-NM.svg"
   inkscape:version="1.0.1 (3bc2e813f5, 2020-09-07)">
  <metadata
     id="metadata10">
    <rdf:RDF>
      <cc:Work
         rdf:about="">
        <dc:format>image/svg+xml</dc:format>
        <dc:type
           rdf:resource="http://purl.org/dc/dcmitype/StillImage" />
      </cc:Work>
    </rdf:RDF>
  </metadata>
  <defs
     id="defs8" />
  <sodipodi:namedview
     pagecolor="#ffffff"
     bordercolor="#666666"
     borderopacity="1"
     objecttolerance="10"
     gridtolerance="10"
     guidetolerance="10"
     inkscape:pageopacity="0"
     inkscape:pageshadow="2"
     inkscape:window-width="1920"
     inkscape:window-height="1017"
     id="namedview6"
     showgrid="false"
     inkscape:zoom="0.72265625"
     inkscape:cx="131.06504"
     inkscape:cy="214.88579"
     inkscape:window-x="-8"
     inkscape:window-y="-8"
     inkscape:window-maximized="1"
     inkscape:current-layer="svg4"
     inkscape:document-rotation="0" />
  <!--! Font Awesome Pro 6.1.1 by @fontawesome - https://fontawesome.com License - https://fontawesome.com/license (Commercial License) Copyright 2022 Fonticons, Inc. -->
  <path
     d="M223.1 32C223.1 14.33 238.3 0 255.1 0C273.7 0 288 14.33 288 32H441.4C445.6 32 449.7 33.69 452.7 36.69L500.7 84.69C506.9 90.93 506.9 101.1 500.7 107.3L452.7 155.3C449.7 158.3 445.6 160 441.4 160H63.1C46.33 160 31.1 145.7 31.1 128V64C31.1 46.33 46.33 32 63.1 32L223.1 32zM480 320C480 337.7 465.7 352 448 352H70.63C66.38 352 62.31 350.3 59.31 347.3L11.31 299.3C5.065 293.1 5.065 282.9 11.31 276.7L59.31 228.7C62.31 225.7 66.38 223.1 70.63 223.1H223.1V191.1H288V223.1H448C465.7 223.1 480 238.3 480 255.1V320zM255.1 512C238.3 512 223.1 497.7 223.1 480V384H288V480C288 497.7 273.7 512 255.1 512z"
     id="path2"
     style="fill:#0091ea;fill-opacity:1" />
  <path
     d="m 393.10644,365.35435 c 0.96596,-0.1035 1.93193,-0.138 2.89789,-0.138 18.28432,0 33.11876,14.52396 33.11876,33.11877 0,18.28431 -14.83444,33.11876 -33.11876,33.11876 -18.5948,0 -33.11876,-14.83445 -33.11876,-33.11876 0,-0.96597 0.0345,-1.93193 0.13799,-2.8979 3.20839,1.55244 6.93425,2.8979 10.90159,2.8979 12.17805,0 22.07918,-9.90114 22.07918,-22.07918 0,-3.96735 -1.34545,-7.69321 -2.89789,-10.90159 z m 69.34241,-16.49039 c 16.1454,14.97244 26.9435,32.60129 32.04931,45.22781 1.13845,2.7254 1.13845,5.76129 0,8.48669 -5.10581,12.31604 -15.90391,29.94488 -32.04931,45.22781 -16.24889,15.11043 -38.56956,27.80596 -66.44452,27.80596 -27.87496,0 -50.19562,-12.69553 -66.43762,-27.80596 -16.14539,-15.28293 -26.93659,-32.91177 -32.06966,-45.22781 -1.13207,-2.7254 -1.13207,-5.76129 0,-8.48669 5.13307,-12.62652 15.92427,-30.25537 32.06966,-45.22781 16.242,-15.09663 38.56266,-27.80596 66.43762,-27.80596 27.87496,0 50.19563,12.70933 66.44452,27.80596 z m -66.44452,-0.20699 c -27.42648,0 -49.67815,22.25167 -49.67815,49.67815 0,27.42647 22.25167,49.67814 49.67815,49.67814 27.42648,0 49.67815,-22.25167 49.67815,-49.67814 0,-27.42648 -22.25167,-49.67815 -49.67815,-49.67815 z"
     id="path2-3"
     style="stroke-width:0.344987;fill:#0277bd;fill-opacity:1" />
</svg>
