<?xml version="1.0" encoding="UTF-8" standalone="no"?>
<svg
   xmlns:dc="http://purl.org/dc/elements/1.1/"
   xmlns:cc="http://creativecommons.org/ns#"
   xmlns:rdf="http://www.w3.org/1999/02/22-rdf-syntax-ns#"
   xmlns:svg="http://www.w3.org/2000/svg"
   xmlns="http://www.w3.org/2000/svg"
   xmlns:sodipodi="http://sodipodi.sourceforge.net/DTD/sodipodi-0.dtd"
   xmlns:inkscape="http://www.inkscape.org/namespaces/inkscape"
   viewBox="0 0 512 512"
   version="1.1"
   id="svg4"
   sodipodi:docname="asset-avatar.svg"
   width="512"
   height="512"
   inkscape:version="1.0.1 (3bc2e813f5, 2020-09-07)">
  <metadata
     id="metadata10">
    <rdf:RDF>
      <cc:Work
         rdf:about="">
        <dc:format>image/svg+xml</dc:format>
        <dc:type
           rdf:resource="http://purl.org/dc/dcmitype/StillImage" />
        <dc:title></dc:title>
      </cc:Work>
    </rdf:RDF>
  </metadata>
  <defs
     id="defs8" />
  <sodipodi:namedview
     pagecolor="#ffffff"
     bordercolor="#666666"
     borderopacity="1"
     objecttolerance="10"
     gridtolerance="10"
     guidetolerance="10"
     inkscape:pageopacity="0"
     inkscape:pageshadow="2"
     inkscape:window-width="1920"
     inkscape:window-height="1017"
     id="namedview6"
     showgrid="false"
     inkscape:zoom="1.4453125"
     inkscape:cx="160"
     inkscape:cy="256"
     inkscape:window-x="-8"
     inkscape:window-y="-8"
     inkscape:window-maximized="1"
     inkscape:current-layer="svg4" />
  <!--! Font Awesome Pro 6.1.1 by @fontawesome - https://fontawesome.com License - https://fontawesome.com/license (Commercial License) Copyright 2022 Fonticons, Inc. -->
  <path
     d="m 304.01385,48 c 0,26.51 -21.5,48 -48,48 -26.5,0 -48,-21.49 -48,-48 0,-26.51 21.5,-48 48,-48 26.5,0 48,21.49 48,48 z m -56,304 v 128 c 0,17.7 -14.3,32 -32,32 -17.7,0 -32,-14.3 -32,-32 V 256.9 l -28.57,47.6 c -9.1,15.1 -28.76,20 -43.91,10.9 -15.1504,-9.1 -20.051,-28.7 -10.947,-43.9 l 58.277,-96.9 c 17.35,-28.9 48.55,-46.6 82.25,-46.6 h 29.8 c 33.7,0 64.9,17.7 82.3,46.6 l 58.2,96.9 c 9.1,15.2 4.2,34.8 -10.9,43.9 -15.2,9.1 -34.8,4.2 -43.9,-10.9 l -28.6,-47.6 V 480 c 0,17.7 -14.3,32 -32,32 -17.7,0 -32,-14.3 -32,-32 V 352 Z"
     id="path2"
     style="fill:#00b8d4;fill-opacity:1" />
</svg>
