<?xml version="1.0" encoding="UTF-8" standalone="no"?>
<svg
   xmlns:dc="http://purl.org/dc/elements/1.1/"
   xmlns:cc="http://creativecommons.org/ns#"
   xmlns:rdf="http://www.w3.org/1999/02/22-rdf-syntax-ns#"
   xmlns:svg="http://www.w3.org/2000/svg"
   xmlns="http://www.w3.org/2000/svg"
   xmlns:sodipodi="http://sodipodi.sourceforge.net/DTD/sodipodi-0.dtd"
   xmlns:inkscape="http://www.inkscape.org/namespaces/inkscape"
   viewBox="0 0 512 512"
   version="1.1"
   id="svg4"
   sodipodi:docname="asset-flare-layer-NM.svg"
   inkscape:version="1.0.1 (3bc2e813f5, 2020-09-07)">
  <metadata
     id="metadata10">
    <rdf:RDF>
      <cc:Work
         rdf:about="">
        <dc:format>image/svg+xml</dc:format>
        <dc:type
           rdf:resource="http://purl.org/dc/dcmitype/StillImage" />
      </cc:Work>
    </rdf:RDF>
  </metadata>
  <defs
     id="defs8" />
  <sodipodi:namedview
     pagecolor="#ffffff"
     bordercolor="#666666"
     borderopacity="1"
     objecttolerance="10"
     gridtolerance="10"
     guidetolerance="10"
     inkscape:pageopacity="0"
     inkscape:pageshadow="2"
     inkscape:window-width="1920"
     inkscape:window-height="1017"
     id="namedview6"
     showgrid="false"
     inkscape:zoom="1.4453125"
     inkscape:cx="315.96918"
     inkscape:cy="262.6343"
     inkscape:window-x="-8"
     inkscape:window-y="-8"
     inkscape:window-maximized="1"
     inkscape:current-layer="svg4" />
  <!--! Font Awesome Pro 6.1.1 by @fontawesome - https://fontawesome.com License - https://fontawesome.com/license (Commercial License) Copyright 2022 Fonticons, Inc. -->
  <path
     d="m 205.99264,145.61654 c -38.69084,0 -69.39832,31.36424 -69.39832,69.39831 0,38.03408 30.06531,70.71186 69.39832,70.71186 39.33301,0 69.39831,-31.36425 69.39831,-69.39832 0,-38.03408 -30.72207,-70.71185 -69.39831,-70.71185 z m 184.84326,137.11823 -46.1196,-67.06315 46.08311,-66.41368 c 4.62072,-6.65888 0.80563,-15.86456 -7.17043,-17.30944 L 304.08727,117.57261 289.71138,38.030897 c -1.44124,-7.97606 -10.64691,-11.79261 -17.30944,-7.16897 l -66.4093,46.7355 -67.06315,-46.08603 c -6.65888,-4.62072 -15.86456,-0.80783 -17.30945,7.16897 l -13.70452,79.570903 -79.570897,14.37589 c -7.97388,1.3865 -11.789689,10.65421 -7.16897,16.63808 l 46.08603,67.06315 -46.08311,66.41368 c -4.62072,6.65888 -0.80637,15.86455 7.16897,17.30944 l 79.541707,14.37589 14.37588,79.54171 c 1.44124,7.97606 10.64692,11.7926 17.30945,7.16897 l 66.41806,-46.08603 66.41368,46.08311 c 6.66034,4.62218 15.87185,0.80782 17.30944,-7.16751 l 14.37589,-79.54171 79.54171,-14.37589 c 8.00525,-1.40694 11.7999,-10.67464 7.20254,-17.31528 z M 205.99264,309.0784 c -51.58536,0 -92.75002,-41.82143 -92.75002,-92.75001 0,-51.58536 41.82143,-92.75002 92.75002,-92.75002 50.92858,0 92.75001,41.81413 92.75001,92.75002 0,51.59265 -41.15736,92.75001 -92.75001,92.75001 z"
     id="path835"
     style="fill:#ffab00;fill-opacity:1;stroke-width:0.72974" />
  <path
     d="m 305.99264,225.61654 c -38.69084,0 -69.39832,31.36424 -69.39832,69.39831 0,38.03408 30.06531,70.71186 69.39832,70.71186 39.33301,0 69.39831,-31.36425 69.39831,-69.39832 0,-38.03408 -30.72207,-70.71185 -69.39831,-70.71185 z m 184.84326,137.11823 -46.1196,-67.06315 46.08311,-66.41368 c 4.62072,-6.65888 0.80563,-15.86456 -7.17043,-17.30944 L 404.08727,197.57261 389.71138,118.0309 c -1.44124,-7.97606 -10.64691,-11.79261 -17.30944,-7.16897 l -66.4093,46.7355 -67.06315,-46.08603 c -6.65888,-4.62072 -15.86456,-0.80783 -17.30945,7.16897 l -13.70452,79.5709 -79.5709,14.37589 c -7.97388,1.3865 -11.78969,10.65421 -7.16897,16.63808 l 46.08603,67.06315 -46.08311,66.41368 c -4.62072,6.65888 -0.80637,15.86455 7.16897,17.30944 l 79.54171,14.37589 14.37588,79.54171 c 1.44124,7.97606 10.64692,11.7926 17.30945,7.16897 l 66.41806,-46.08603 66.41368,46.08311 c 6.66034,4.62218 15.87185,0.80782 17.30944,-7.16751 l 14.37589,-79.54171 79.54171,-14.37589 c 8.00525,-1.40694 11.7999,-10.67464 7.20254,-17.31528 z M 305.99264,389.0784 c -51.58536,0 -92.75002,-41.82143 -92.75002,-92.75001 0,-51.58536 41.82143,-92.75002 92.75002,-92.75002 50.92858,0 92.75001,41.81413 92.75001,92.75002 0,51.59265 -41.15736,92.75001 -92.75001,92.75001 z"
     id="path2"
     style="fill:#ff8f00;fill-opacity:1;stroke-width:0.72974" />
</svg>
