<?xml version="1.0" encoding="UTF-8" standalone="no"?>
<svg
   xmlns:dc="http://purl.org/dc/elements/1.1/"
   xmlns:cc="http://creativecommons.org/ns#"
   xmlns:rdf="http://www.w3.org/1999/02/22-rdf-syntax-ns#"
   xmlns:svg="http://www.w3.org/2000/svg"
   xmlns="http://www.w3.org/2000/svg"
   xmlns:sodipodi="http://sodipodi.sourceforge.net/DTD/sodipodi-0.dtd"
   xmlns:inkscape="http://www.inkscape.org/namespaces/inkscape"
   viewBox="0 0 512 512"
   version="1.1"
   id="svg4"
   sodipodi:docname="asset-canvas-NM.svg"
   inkscape:version="1.0.1 (3bc2e813f5, 2020-09-07)"
   width="512"
   height="512">
  <metadata
     id="metadata10">
    <rdf:RDF>
      <cc:Work
         rdf:about="">
        <dc:format>image/svg+xml</dc:format>
        <dc:type
           rdf:resource="http://purl.org/dc/dcmitype/StillImage" />
        <dc:title></dc:title>
      </cc:Work>
    </rdf:RDF>
  </metadata>
  <defs
     id="defs8" />
  <sodipodi:namedview
     pagecolor="#ffffff"
     bordercolor="#666666"
     borderopacity="1"
     objecttolerance="10"
     gridtolerance="10"
     guidetolerance="10"
     inkscape:pageopacity="0"
     inkscape:pageshadow="2"
     inkscape:window-width="1920"
     inkscape:window-height="1017"
     id="namedview6"
     showgrid="false"
     inkscape:zoom="1.4453125"
     inkscape:cx="288"
     inkscape:cy="256"
     inkscape:window-x="-8"
     inkscape:window-y="-8"
     inkscape:window-maximized="1"
     inkscape:current-layer="svg4"
     inkscape:document-rotation="0" />
  <!--! Font Awesome Pro 6.1.1 by @fontawesome - https://fontawesome.com License - https://fontawesome.com/license (Commercial License) Copyright 2022 Fonticons, Inc. -->
  <path
     d="M 32,119.4 C 12.87,108.4 0,87.69 0,64 0,28.65 28.65,0 64,0 c 23.69,0 44.4,12.87 55.4,32 h 273.2 c 11,-19.13 31.7,-32 55.4,-32 35.3,0 64,28.65 64,64 0,23.69 -12.9,44.4 -32,55.4 v 273.2 c 19.1,11 32,31.7 32,55.4 0,35.3 -28.7,64 -64,64 -23.7,0 -44.4,-12.9 -55.4,-32 H 119.4 C 108.4,499.1 87.69,512 64,512 28.65,512 0,483.3 0,448 0,424.3 12.87,403.6 32,392.6 Z M 119.4,96 c -5.6,9.7 -13.7,17.8 -23.4,23.4 v 273.2 c 9.7,5.6 17.8,13.7 23.4,23.4 h 273.2 c 5.6,-9.7 13.7,-17.8 23.4,-23.4 V 119.4 C 406.3,113.8 398.2,105.7 392.6,96 Z"
     id="path2"
     style="fill:#616161;fill-opacity:1"
     sodipodi:nodetypes="cssccssccssccssccccccccccc" />
</svg>
