<?xml version="1.0" encoding="UTF-8" standalone="no"?>
<svg
   xmlns:dc="http://purl.org/dc/elements/1.1/"
   xmlns:cc="http://creativecommons.org/ns#"
   xmlns:rdf="http://www.w3.org/1999/02/22-rdf-syntax-ns#"
   xmlns:svg="http://www.w3.org/2000/svg"
   xmlns="http://www.w3.org/2000/svg"
   xmlns:sodipodi="http://sodipodi.sourceforge.net/DTD/sodipodi-0.dtd"
   xmlns:inkscape="http://www.inkscape.org/namespaces/inkscape"
   viewBox="0 0 512 512"
   version="1.1"
   id="svg4"
   sodipodi:docname="asset-animation-clip.svg"
   inkscape:version="1.0.1 (3bc2e813f5, 2020-09-07)"
   width="512"
   height="512">
  <metadata
     id="metadata10">
    <rdf:RDF>
      <cc:Work
         rdf:about="">
        <dc:format>image/svg+xml</dc:format>
        <dc:type
           rdf:resource="http://purl.org/dc/dcmitype/StillImage" />
        <dc:title></dc:title>
      </cc:Work>
    </rdf:RDF>
  </metadata>
  <defs
     id="defs8" />
  <sodipodi:namedview
     pagecolor="#ffffff"
     bordercolor="#666666"
     borderopacity="1"
     objecttolerance="10"
     gridtolerance="10"
     guidetolerance="10"
     inkscape:pageopacity="0"
     inkscape:pageshadow="2"
     inkscape:window-width="1920"
     inkscape:window-height="1017"
     id="namedview6"
     showgrid="false"
     inkscape:zoom="0.36132813"
     inkscape:cx="105.66327"
     inkscape:cy="220.46829"
     inkscape:window-x="-8"
     inkscape:window-y="-8"
     inkscape:window-maximized="1"
     inkscape:current-layer="svg4" />
  <!--! Font Awesome Pro 6.1.1 by @fontawesome - https://fontawesome.com License - https://fontawesome.com/license (Commercial License) Copyright 2022 Fonticons, Inc. -->
  <path
     d="m 432,224 h -44 l -26.12,-53.25 c -12.5,-25.5 -35.38,-44.25 -61.75,-51 L 229,98.63 c -7.5,-1.79 -15.9,-2.66 -22.5,-2.66 -20.88,0 -41.33,6.81 -58.26,19.78 L 108.5,146.3 c -8.19,6.2 -12.49,15.7 -12.49,25.3 0,17.11 13.67,32.02 32.02,32.02 6.808,0 13.67,-2.158 19.47,-6.616 l 39.63,-30.38 c 5.92,-4.488 13.01,-6.787 19.53,-6.787 2.017,0 3.981,0.2196 5.841,0.6623 l 14.62,4.25 -37.5,87.5 C 186.1,260.3 184.5,268.8 184.5,277.2 c 0,22.09 11.49,43.52 31.51,55.29 l 85,50.13 -27.5,87.75 c -0.9875,3.174 -1.458,6.388 -1.458,9.55 0,13.65 8.757,26.31 22.46,30.58 3.088,1 6.388,1.5 9.488,1.5 13.62,0 26.25,-8.75 30.5,-22.5 l 31.75,-101 c 1.211,-4.278 1.796,-8.625 1.796,-12.93 0,-16.57 -8.661,-32.51 -23.55,-41.44 l -61.13,-36.12 31.25,-78.38 20.25,41.5 C 342.9,277.4 359.9,288 377.1,288 H 432 c 17.62,0 32,-14.38 32,-32 0,-17.7 -14.4,-32 -32,-32 z M 320,96 c 26.5,0 48,-21.5 48,-48 0,-26.5 -21.5,-48 -48,-48 -26.5,0 -48,21.5 -48,48 0,26.5 21.5,48 48,48 z M 161.8,317.5 146.9,352 H 80 c -17.62,0 -32,14.38 -32,32 0,17.62 14.38,32 32,32 h 77.5 c 19.25,0 36.5,-11.5 44,-29.12 l 8.875,-20.5 -10.75,-6.25 C 182.4,349.9 169.6,334.8 161.8,317.5 Z"
     id="path2"
     style="fill:#00b8d4;fill-opacity:1" />
</svg>
