<?xml version="1.0" encoding="UTF-8" standalone="no"?>
<svg
   xmlns:dc="http://purl.org/dc/elements/1.1/"
   xmlns:cc="http://creativecommons.org/ns#"
   xmlns:rdf="http://www.w3.org/1999/02/22-rdf-syntax-ns#"
   xmlns:svg="http://www.w3.org/2000/svg"
   xmlns="http://www.w3.org/2000/svg"
   xmlns:sodipodi="http://sodipodi.sourceforge.net/DTD/sodipodi-0.dtd"
   xmlns:inkscape="http://www.inkscape.org/namespaces/inkscape"
   viewBox="0 0 512 512"
   version="1.1"
   id="svg4"
   sodipodi:docname="asset-sprite-renderer.svg"
   width="512"
   height="512"
   inkscape:version="1.0.1 (3bc2e813f5, 2020-09-07)">
  <metadata
     id="metadata10">
    <rdf:RDF>
      <cc:Work
         rdf:about="">
        <dc:format>image/svg+xml</dc:format>
        <dc:type
           rdf:resource="http://purl.org/dc/dcmitype/StillImage" />
        <dc:title />
      </cc:Work>
    </rdf:RDF>
  </metadata>
  <defs
     id="defs8" />
  <sodipodi:namedview
     pagecolor="#ffffff"
     bordercolor="#666666"
     borderopacity="1"
     objecttolerance="10"
     gridtolerance="10"
     guidetolerance="10"
     inkscape:pageopacity="0"
     inkscape:pageshadow="2"
     inkscape:window-width="1920"
     inkscape:window-height="1017"
     id="namedview6"
     showgrid="false"
     inkscape:zoom="1.4453125"
     inkscape:cx="224"
     inkscape:cy="256"
     inkscape:window-x="-8"
     inkscape:window-y="-8"
     inkscape:window-maximized="1"
     inkscape:current-layer="svg4"
     inkscape:document-rotation="0" />
  <!--! Font Awesome Pro 6.1.1 by @fontawesome - https://fontawesome.com License - https://fontawesome.com/license (Commercial License) Copyright 2022 Fonticons, Inc. -->
  <path
     d="m 224,224 h -64 v 64 h 64 z M 416,32 H 96 C 60.65,32 32,60.65 32,96 v 320 c 0,35.35 28.65,64 64,64 h 320 c 35.35,0 64,-28.65 64,-64 V 96 C 480,60.65 451.3,32 416,32 Z m 0,128 h -64 v 64 h 64 v 64 h -64 v 64 h 64 v 64 h -64 v -64 h -64 v 64 h -64 v -64 h -64 v 64 H 96 v -64 h 64 V 288 H 96 v -64 h 64 V 160 H 96 V 96 h 64 v 64 h 64 V 96 h 64 v 64 h 64 V 96 h 64 z M 224,288 v 64 h 64 v -64 z m 64,-64 v -64 h -64 v 64 z m 0,64 h 64 v -64 h -64 z"
     id="path2"
     style="fill:#6200ea;fill-opacity:1" />
  <path
     d="m 393.10644,365.35435 c 0.96596,-0.1035 1.93193,-0.138 2.89789,-0.138 18.2843,0 33.11874,14.52396 33.11874,33.11877 0,18.28431 -14.83444,33.11876 -33.11874,33.11876 -18.5948,0 -33.11876,-14.83445 -33.11876,-33.11876 0,-0.96597 0.0345,-1.93193 0.13799,-2.8979 3.20839,1.55244 6.93425,2.8979 10.90159,2.8979 12.17805,0 22.07918,-9.90114 22.07918,-22.07918 0,-3.96735 -1.34545,-7.69321 -2.89789,-10.90159 z m 69.34239,-16.49039 c 16.1454,14.97244 26.9435,32.60129 32.04931,45.22781 1.13845,2.7254 1.13845,5.76129 0,8.48669 -5.10581,12.31604 -15.90391,29.94488 -32.04931,45.22781 -16.24889,15.11043 -38.56956,27.80596 -66.4445,27.80596 -27.87496,0 -50.19562,-12.69553 -66.43762,-27.80596 -16.14539,-15.28293 -26.93659,-32.91177 -32.06966,-45.22781 -1.13207,-2.7254 -1.13207,-5.76129 0,-8.48669 5.13307,-12.62652 15.92427,-30.25537 32.06966,-45.22781 16.242,-15.09663 38.56266,-27.80596 66.43762,-27.80596 27.87494,0 50.19561,12.70933 66.4445,27.80596 z m -66.4445,-0.20699 c -27.42648,0 -49.67815,22.25167 -49.67815,49.67815 0,27.42647 22.25167,49.67814 49.67815,49.67814 27.42646,0 49.67813,-22.25167 49.67813,-49.67814 0,-27.42648 -22.25167,-49.67815 -49.67813,-49.67815 z"
     id="path2-3"
     style="fill:#4527a0;fill-opacity:1;stroke-width:0.344987" />
</svg>
