<?xml version="1.0" encoding="UTF-8" standalone="no"?>
<svg
   xmlns:dc="http://purl.org/dc/elements/1.1/"
   xmlns:cc="http://creativecommons.org/ns#"
   xmlns:rdf="http://www.w3.org/1999/02/22-rdf-syntax-ns#"
   xmlns:svg="http://www.w3.org/2000/svg"
   xmlns="http://www.w3.org/2000/svg"
   xmlns:sodipodi="http://sodipodi.sourceforge.net/DTD/sodipodi-0.dtd"
   xmlns:inkscape="http://www.inkscape.org/namespaces/inkscape"
   viewBox="0 0 512 512"
   version="1.1"
   id="svg4"
   sodipodi:docname="asset-particlesystem.svg"
   inkscape:version="1.0.1 (3bc2e813f5, 2020-09-07)"
   width="512"
   height="512">
  <metadata
     id="metadata10">
    <rdf:RDF>
      <cc:Work
         rdf:about="">
        <dc:format>image/svg+xml</dc:format>
        <dc:type
           rdf:resource="http://purl.org/dc/dcmitype/StillImage" />
        <dc:title></dc:title>
      </cc:Work>
    </rdf:RDF>
  </metadata>
  <defs
     id="defs8" />
  <sodipodi:namedview
     pagecolor="#ffffff"
     bordercolor="#666666"
     borderopacity="1"
     objecttolerance="10"
     gridtolerance="10"
     guidetolerance="10"
     inkscape:pageopacity="0"
     inkscape:pageshadow="2"
     inkscape:window-width="1920"
     inkscape:window-height="1017"
     id="namedview6"
     showgrid="false"
     inkscape:zoom="1.0219903"
     inkscape:cx="198.13516"
     inkscape:cy="281.22001"
     inkscape:window-x="-8"
     inkscape:window-y="-8"
     inkscape:window-maximized="1"
     inkscape:current-layer="svg4"
     inkscape:document-rotation="0" />
  <!--! Font Awesome Pro 6.1.1 by @fontawesome - https://fontawesome.com License - https://fontawesome.com/license (Commercial License) Copyright 2022 Fonticons, Inc. -->
  <path
     d="M 355.5,51.25 C 334.8,70.5 316,90.75 299.4,111.1 272.1,73.62 238.2,35.5 200,0 101.75,91.12 32,210 32,281.6 32,408.9 132.2,512 256,512 379.8,512 480,408.9 480,281.6 480,228.4 428,118.5 355.5,51.25 Z M 336.1,391.9 C 314.4,407 287.8,416 258.9,416 186.77,416 128,368.27 128,290.8 c 0,-38.63 24.24,-72.64 72.74,-130.8 7,8 98.88,125.4 98.88,125.4 l 58.63,-66.88 c 4.125,6.75 7.867,13.52 11.24,19.9 C 396.9,290.6 385.4,357.4 336.1,391.9 Z"
     id="path2"
     style="fill:#0091ea;fill-opacity:1" />
</svg>
